<?xml version="1.0" encoding="utf-8" standalone="no"?>
<!DOCTYPE svg PUBLIC "-//W3C//DTD SVG 1.1//EN"
  "http://www.w3.org/Graphics/SVG/1.1/DTD/svg11.dtd">
<svg xmlns:xlink="http://www.w3.org/1999/xlink" width="798.322813pt" height="429.267pt" viewBox="0 0 798.322813 429.267" xmlns="http://www.w3.org/2000/svg" version="1.1">
 <metadata>
  <rdf:RDF xmlns:dc="http://purl.org/dc/elements/1.1/" xmlns:cc="http://creativecommons.org/ns#" xmlns:rdf="http://www.w3.org/1999/02/22-rdf-syntax-ns#">
   <cc:Work>
    <dc:type rdf:resource="http://purl.org/dc/dcmitype/StillImage"/>
    <dc:date>2026-05-08T22:41:19.732301</dc:date>
    <dc:format>image/svg+xml</dc:format>
    <dc:creator>
     <cc:Agent>
      <dc:title>Matplotlib v3.10.8, https://matplotlib.org/</dc:title>
     </cc:Agent>
    </dc:creator>
   </cc:Work>
  </rdf:RDF>
 </metadata>
 <defs>
  <style type="text/css">*{stroke-linejoin: round; stroke-linecap: butt}</style>
 </defs>
 <g id="figure_1">
  <g id="patch_1">
   <path d="M 0 429.267 
L 798.322812 429.267 
L 798.322812 0 
L 0 0 
z
" style="fill: #ffffff"/>
  </g>
  <g id="axes_1">
   <g id="patch_2">
    <path d="M 48.982812 405.388875 
L 791.122813 405.388875 
L 791.122813 28.396875 
L 48.982812 28.396875 
z
" style="fill: #ffffff"/>
   </g>
   <g id="matplotlib.axis_1">
    <g id="xtick_1">
     <g id="line2d_1">
      <defs>
       <path id="m4a07a2009f" d="M 0 0 
L 0 3.5 
" style="stroke: #495057; stroke-width: 0.8"/>
      </defs>
      <g>
       <use xlink:href="#m4a07a2009f" x="79.334631" y="405.388875" style="fill: #495057; stroke: #495057; stroke-width: 0.8"/>
      </g>
     </g>
     <g id="text_1">
      <!-- 2024 -->
      <g style="fill: #495057" transform="translate(66.609631 419.987312) scale(0.1 -0.1)">
       <defs>
        <path id="DejaVuSans-32" d="M 1228 531 
L 3431 531 
L 3431 0 
L 469 0 
L 469 531 
Q 828 903 1448 1529 
Q 2069 2156 2228 2338 
Q 2531 2678 2651 2914 
Q 2772 3150 2772 3378 
Q 2772 3750 2511 3984 
Q 2250 4219 1831 4219 
Q 1534 4219 1204 4116 
Q 875 4013 500 3803 
L 500 4441 
Q 881 4594 1212 4672 
Q 1544 4750 1819 4750 
Q 2544 4750 2975 4387 
Q 3406 4025 3406 3419 
Q 3406 3131 3298 2873 
Q 3191 2616 2906 2266 
Q 2828 2175 2409 1742 
Q 1991 1309 1228 531 
z
" transform="scale(0.015625)"/>
        <path id="DejaVuSans-30" d="M 2034 4250 
Q 1547 4250 1301 3770 
Q 1056 3291 1056 2328 
Q 1056 1369 1301 889 
Q 1547 409 2034 409 
Q 2525 409 2770 889 
Q 3016 1369 3016 2328 
Q 3016 3291 2770 3770 
Q 2525 4250 2034 4250 
z
M 2034 4750 
Q 2819 4750 3233 4129 
Q 3647 3509 3647 2328 
Q 3647 1150 3233 529 
Q 2819 -91 2034 -91 
Q 1250 -91 836 529 
Q 422 1150 422 2328 
Q 422 3509 836 4129 
Q 1250 4750 2034 4750 
z
" transform="scale(0.015625)"/>
        <path id="DejaVuSans-34" d="M 2419 4116 
L 825 1625 
L 2419 1625 
L 2419 4116 
z
M 2253 4666 
L 3047 4666 
L 3047 1625 
L 3713 1625 
L 3713 1100 
L 3047 1100 
L 3047 0 
L 2419 0 
L 2419 1100 
L 313 1100 
L 313 1709 
L 2253 4666 
z
" transform="scale(0.015625)"/>
       </defs>
       <use xlink:href="#DejaVuSans-32"/>
       <use xlink:href="#DejaVuSans-30" transform="translate(63.623047 0)"/>
       <use xlink:href="#DejaVuSans-32" transform="translate(127.246094 0)"/>
       <use xlink:href="#DejaVuSans-34" transform="translate(190.869141 0)"/>
      </g>
     </g>
    </g>
    <g id="xtick_2">
     <g id="line2d_2">
      <g>
       <use xlink:href="#m4a07a2009f" x="388.770994" y="405.388875" style="fill: #495057; stroke: #495057; stroke-width: 0.8"/>
      </g>
     </g>
     <g id="text_2">
      <!-- 2025 -->
      <g style="fill: #495057" transform="translate(376.045994 419.987312) scale(0.1 -0.1)">
       <defs>
        <path id="DejaVuSans-35" d="M 691 4666 
L 3169 4666 
L 3169 4134 
L 1269 4134 
L 1269 2991 
Q 1406 3038 1543 3061 
Q 1681 3084 1819 3084 
Q 2600 3084 3056 2656 
Q 3513 2228 3513 1497 
Q 3513 744 3044 326 
Q 2575 -91 1722 -91 
Q 1428 -91 1123 -41 
Q 819 9 494 109 
L 494 744 
Q 775 591 1075 516 
Q 1375 441 1709 441 
Q 2250 441 2565 725 
Q 2881 1009 2881 1497 
Q 2881 1984 2565 2268 
Q 2250 2553 1709 2553 
Q 1456 2553 1204 2497 
Q 953 2441 691 2322 
L 691 4666 
z
" transform="scale(0.015625)"/>
       </defs>
       <use xlink:href="#DejaVuSans-32"/>
       <use xlink:href="#DejaVuSans-30" transform="translate(63.623047 0)"/>
       <use xlink:href="#DejaVuSans-32" transform="translate(127.246094 0)"/>
       <use xlink:href="#DejaVuSans-35" transform="translate(190.869141 0)"/>
      </g>
     </g>
    </g>
    <g id="xtick_3">
     <g id="line2d_3">
      <g>
       <use xlink:href="#m4a07a2009f" x="697.361903" y="405.388875" style="fill: #495057; stroke: #495057; stroke-width: 0.8"/>
      </g>
     </g>
     <g id="text_3">
      <!-- 2026 -->
      <g style="fill: #495057" transform="translate(684.636903 419.987312) scale(0.1 -0.1)">
       <defs>
        <path id="DejaVuSans-36" d="M 2113 2584 
Q 1688 2584 1439 2293 
Q 1191 2003 1191 1497 
Q 1191 994 1439 701 
Q 1688 409 2113 409 
Q 2538 409 2786 701 
Q 3034 994 3034 1497 
Q 3034 2003 2786 2293 
Q 2538 2584 2113 2584 
z
M 3366 4563 
L 3366 3988 
Q 3128 4100 2886 4159 
Q 2644 4219 2406 4219 
Q 1781 4219 1451 3797 
Q 1122 3375 1075 2522 
Q 1259 2794 1537 2939 
Q 1816 3084 2150 3084 
Q 2853 3084 3261 2657 
Q 3669 2231 3669 1497 
Q 3669 778 3244 343 
Q 2819 -91 2113 -91 
Q 1303 -91 875 529 
Q 447 1150 447 2328 
Q 447 3434 972 4092 
Q 1497 4750 2381 4750 
Q 2619 4750 2861 4703 
Q 3103 4656 3366 4563 
z
" transform="scale(0.015625)"/>
       </defs>
       <use xlink:href="#DejaVuSans-32"/>
       <use xlink:href="#DejaVuSans-30" transform="translate(63.623047 0)"/>
       <use xlink:href="#DejaVuSans-32" transform="translate(127.246094 0)"/>
       <use xlink:href="#DejaVuSans-36" transform="translate(190.869141 0)"/>
      </g>
     </g>
    </g>
   </g>
   <g id="matplotlib.axis_2">
    <g id="ytick_1">
     <g id="line2d_4">
      <path d="M 48.982812 352.492405 
L 791.122813 352.492405 
" clip-path="url(#p9ffead7b7b)" style="fill: none; stroke: #e9ecef; stroke-width: 0.9; stroke-linecap: square"/>
     </g>
     <g id="line2d_5">
      <defs>
       <path id="me217fbc7a1" d="M 0 0 
L -3.5 0 
" style="stroke: #495057; stroke-width: 0.8"/>
      </defs>
      <g>
       <use xlink:href="#me217fbc7a1" x="48.982812" y="352.492405" style="fill: #495057; stroke: #495057; stroke-width: 0.8"/>
      </g>
     </g>
     <g id="text_4">
      <!-- −20 -->
      <g style="fill: #495057" transform="translate(20.878125 356.291624) scale(0.1 -0.1)">
       <defs>
        <path id="DejaVuSans-2212" d="M 678 2272 
L 4684 2272 
L 4684 1741 
L 678 1741 
L 678 2272 
z
" transform="scale(0.015625)"/>
       </defs>
       <use xlink:href="#DejaVuSans-2212"/>
       <use xlink:href="#DejaVuSans-32" transform="translate(83.789062 0)"/>
       <use xlink:href="#DejaVuSans-30" transform="translate(147.412109 0)"/>
      </g>
     </g>
    </g>
    <g id="ytick_2">
     <g id="line2d_6">
      <path d="M 48.982812 275.752523 
L 791.122813 275.752523 
" clip-path="url(#p9ffead7b7b)" style="fill: none; stroke: #e9ecef; stroke-width: 0.9; stroke-linecap: square"/>
     </g>
     <g id="line2d_7">
      <g>
       <use xlink:href="#me217fbc7a1" x="48.982812" y="275.752523" style="fill: #495057; stroke: #495057; stroke-width: 0.8"/>
      </g>
     </g>
     <g id="text_5">
      <!-- −15 -->
      <g style="fill: #495057" transform="translate(20.878125 279.551741) scale(0.1 -0.1)">
       <defs>
        <path id="DejaVuSans-31" d="M 794 531 
L 1825 531 
L 1825 4091 
L 703 3866 
L 703 4441 
L 1819 4666 
L 2450 4666 
L 2450 531 
L 3481 531 
L 3481 0 
L 794 0 
L 794 531 
z
" transform="scale(0.015625)"/>
       </defs>
       <use xlink:href="#DejaVuSans-2212"/>
       <use xlink:href="#DejaVuSans-31" transform="translate(83.789062 0)"/>
       <use xlink:href="#DejaVuSans-35" transform="translate(147.412109 0)"/>
      </g>
     </g>
    </g>
    <g id="ytick_3">
     <g id="line2d_8">
      <path d="M 48.982812 199.01264 
L 791.122813 199.01264 
" clip-path="url(#p9ffead7b7b)" style="fill: none; stroke: #e9ecef; stroke-width: 0.9; stroke-linecap: square"/>
     </g>
     <g id="line2d_9">
      <g>
       <use xlink:href="#me217fbc7a1" x="48.982812" y="199.01264" style="fill: #495057; stroke: #495057; stroke-width: 0.8"/>
      </g>
     </g>
     <g id="text_6">
      <!-- −10 -->
      <g style="fill: #495057" transform="translate(20.878125 202.811859) scale(0.1 -0.1)">
       <use xlink:href="#DejaVuSans-2212"/>
       <use xlink:href="#DejaVuSans-31" transform="translate(83.789062 0)"/>
       <use xlink:href="#DejaVuSans-30" transform="translate(147.412109 0)"/>
      </g>
     </g>
    </g>
    <g id="ytick_4">
     <g id="line2d_10">
      <path d="M 48.982812 122.272758 
L 791.122813 122.272758 
" clip-path="url(#p9ffead7b7b)" style="fill: none; stroke: #e9ecef; stroke-width: 0.9; stroke-linecap: square"/>
     </g>
     <g id="line2d_11">
      <g>
       <use xlink:href="#me217fbc7a1" x="48.982812" y="122.272758" style="fill: #495057; stroke: #495057; stroke-width: 0.8"/>
      </g>
     </g>
     <g id="text_7">
      <!-- −5 -->
      <g style="fill: #495057" transform="translate(27.240625 126.071976) scale(0.1 -0.1)">
       <use xlink:href="#DejaVuSans-2212"/>
       <use xlink:href="#DejaVuSans-35" transform="translate(83.789062 0)"/>
      </g>
     </g>
    </g>
    <g id="ytick_5">
     <g id="line2d_12">
      <path d="M 48.982812 45.532875 
L 791.122813 45.532875 
" clip-path="url(#p9ffead7b7b)" style="fill: none; stroke: #e9ecef; stroke-width: 0.9; stroke-linecap: square"/>
     </g>
     <g id="line2d_13">
      <g>
       <use xlink:href="#me217fbc7a1" x="48.982812" y="45.532875" style="fill: #495057; stroke: #495057; stroke-width: 0.8"/>
      </g>
     </g>
     <g id="text_8">
      <!-- 0 -->
      <g style="fill: #495057" transform="translate(35.620312 49.332094) scale(0.1 -0.1)">
       <use xlink:href="#DejaVuSans-30"/>
      </g>
     </g>
    </g>
    <g id="text_9">
     <!-- Drawdown (%) -->
     <g transform="translate(14.798437 253.684281) rotate(-90) scale(0.1 -0.1)">
      <defs>
       <path id="DejaVuSans-44" d="M 1259 4147 
L 1259 519 
L 2022 519 
Q 2988 519 3436 956 
Q 3884 1394 3884 2338 
Q 3884 3275 3436 3711 
Q 2988 4147 2022 4147 
L 1259 4147 
z
M 628 4666 
L 1925 4666 
Q 3281 4666 3915 4102 
Q 4550 3538 4550 2338 
Q 4550 1131 3912 565 
Q 3275 0 1925 0 
L 628 0 
L 628 4666 
z
" transform="scale(0.015625)"/>
       <path id="DejaVuSans-72" d="M 2631 2963 
Q 2534 3019 2420 3045 
Q 2306 3072 2169 3072 
Q 1681 3072 1420 2755 
Q 1159 2438 1159 1844 
L 1159 0 
L 581 0 
L 581 3500 
L 1159 3500 
L 1159 2956 
Q 1341 3275 1631 3429 
Q 1922 3584 2338 3584 
Q 2397 3584 2469 3576 
Q 2541 3569 2628 3553 
L 2631 2963 
z
" transform="scale(0.015625)"/>
       <path id="DejaVuSans-61" d="M 2194 1759 
Q 1497 1759 1228 1600 
Q 959 1441 959 1056 
Q 959 750 1161 570 
Q 1363 391 1709 391 
Q 2188 391 2477 730 
Q 2766 1069 2766 1631 
L 2766 1759 
L 2194 1759 
z
M 3341 1997 
L 3341 0 
L 2766 0 
L 2766 531 
Q 2569 213 2275 61 
Q 1981 -91 1556 -91 
Q 1019 -91 701 211 
Q 384 513 384 1019 
Q 384 1609 779 1909 
Q 1175 2209 1959 2209 
L 2766 2209 
L 2766 2266 
Q 2766 2663 2505 2880 
Q 2244 3097 1772 3097 
Q 1472 3097 1187 3025 
Q 903 2953 641 2809 
L 641 3341 
Q 956 3463 1253 3523 
Q 1550 3584 1831 3584 
Q 2591 3584 2966 3190 
Q 3341 2797 3341 1997 
z
" transform="scale(0.015625)"/>
       <path id="DejaVuSans-77" d="M 269 3500 
L 844 3500 
L 1563 769 
L 2278 3500 
L 2956 3500 
L 3675 769 
L 4391 3500 
L 4966 3500 
L 4050 0 
L 3372 0 
L 2619 2869 
L 1863 0 
L 1184 0 
L 269 3500 
z
" transform="scale(0.015625)"/>
       <path id="DejaVuSans-64" d="M 2906 2969 
L 2906 4863 
L 3481 4863 
L 3481 0 
L 2906 0 
L 2906 525 
Q 2725 213 2448 61 
Q 2172 -91 1784 -91 
Q 1150 -91 751 415 
Q 353 922 353 1747 
Q 353 2572 751 3078 
Q 1150 3584 1784 3584 
Q 2172 3584 2448 3432 
Q 2725 3281 2906 2969 
z
M 947 1747 
Q 947 1113 1208 752 
Q 1469 391 1925 391 
Q 2381 391 2643 752 
Q 2906 1113 2906 1747 
Q 2906 2381 2643 2742 
Q 2381 3103 1925 3103 
Q 1469 3103 1208 2742 
Q 947 2381 947 1747 
z
" transform="scale(0.015625)"/>
       <path id="DejaVuSans-6f" d="M 1959 3097 
Q 1497 3097 1228 2736 
Q 959 2375 959 1747 
Q 959 1119 1226 758 
Q 1494 397 1959 397 
Q 2419 397 2687 759 
Q 2956 1122 2956 1747 
Q 2956 2369 2687 2733 
Q 2419 3097 1959 3097 
z
M 1959 3584 
Q 2709 3584 3137 3096 
Q 3566 2609 3566 1747 
Q 3566 888 3137 398 
Q 2709 -91 1959 -91 
Q 1206 -91 779 398 
Q 353 888 353 1747 
Q 353 2609 779 3096 
Q 1206 3584 1959 3584 
z
" transform="scale(0.015625)"/>
       <path id="DejaVuSans-6e" d="M 3513 2113 
L 3513 0 
L 2938 0 
L 2938 2094 
Q 2938 2591 2744 2837 
Q 2550 3084 2163 3084 
Q 1697 3084 1428 2787 
Q 1159 2491 1159 1978 
L 1159 0 
L 581 0 
L 581 3500 
L 1159 3500 
L 1159 2956 
Q 1366 3272 1645 3428 
Q 1925 3584 2291 3584 
Q 2894 3584 3203 3211 
Q 3513 2838 3513 2113 
z
" transform="scale(0.015625)"/>
       <path id="DejaVuSans-20" transform="scale(0.015625)"/>
       <path id="DejaVuSans-28" d="M 1984 4856 
Q 1566 4138 1362 3434 
Q 1159 2731 1159 2009 
Q 1159 1288 1364 580 
Q 1569 -128 1984 -844 
L 1484 -844 
Q 1016 -109 783 600 
Q 550 1309 550 2009 
Q 550 2706 781 3412 
Q 1013 4119 1484 4856 
L 1984 4856 
z
" transform="scale(0.015625)"/>
       <path id="DejaVuSans-25" d="M 4653 2053 
Q 4381 2053 4226 1822 
Q 4072 1591 4072 1178 
Q 4072 772 4226 539 
Q 4381 306 4653 306 
Q 4919 306 5073 539 
Q 5228 772 5228 1178 
Q 5228 1588 5073 1820 
Q 4919 2053 4653 2053 
z
M 4653 2450 
Q 5147 2450 5437 2106 
Q 5728 1763 5728 1178 
Q 5728 594 5436 251 
Q 5144 -91 4653 -91 
Q 4153 -91 3862 251 
Q 3572 594 3572 1178 
Q 3572 1766 3864 2108 
Q 4156 2450 4653 2450 
z
M 1428 4353 
Q 1159 4353 1004 4120 
Q 850 3888 850 3481 
Q 850 3069 1003 2837 
Q 1156 2606 1428 2606 
Q 1700 2606 1854 2837 
Q 2009 3069 2009 3481 
Q 2009 3884 1853 4118 
Q 1697 4353 1428 4353 
z
M 4250 4750 
L 4750 4750 
L 1831 -91 
L 1331 -91 
L 4250 4750 
z
M 1428 4750 
Q 1922 4750 2215 4408 
Q 2509 4066 2509 3481 
Q 2509 2891 2217 2550 
Q 1925 2209 1428 2209 
Q 931 2209 642 2551 
Q 353 2894 353 3481 
Q 353 4063 643 4406 
Q 934 4750 1428 4750 
z
" transform="scale(0.015625)"/>
       <path id="DejaVuSans-29" d="M 513 4856 
L 1013 4856 
Q 1481 4119 1714 3412 
Q 1947 2706 1947 2009 
Q 1947 1309 1714 600 
Q 1481 -109 1013 -844 
L 513 -844 
Q 928 -128 1133 580 
Q 1338 1288 1338 2009 
Q 1338 2731 1133 3434 
Q 928 4138 513 4856 
z
" transform="scale(0.015625)"/>
      </defs>
      <use xlink:href="#DejaVuSans-44"/>
      <use xlink:href="#DejaVuSans-72" transform="translate(77.001953 0)"/>
      <use xlink:href="#DejaVuSans-61" transform="translate(118.115234 0)"/>
      <use xlink:href="#DejaVuSans-77" transform="translate(179.394531 0)"/>
      <use xlink:href="#DejaVuSans-64" transform="translate(261.181641 0)"/>
      <use xlink:href="#DejaVuSans-6f" transform="translate(324.658203 0)"/>
      <use xlink:href="#DejaVuSans-77" transform="translate(385.839844 0)"/>
      <use xlink:href="#DejaVuSans-6e" transform="translate(467.626953 0)"/>
      <use xlink:href="#DejaVuSans-20" transform="translate(531.005859 0)"/>
      <use xlink:href="#DejaVuSans-28" transform="translate(562.792969 0)"/>
      <use xlink:href="#DejaVuSans-25" transform="translate(601.806641 0)"/>
      <use xlink:href="#DejaVuSans-29" transform="translate(696.826172 0)"/>
     </g>
    </g>
   </g>
   <g id="line2d_14">
    <path d="M 82.716449 45.532875 
L 88.634631 85.708001 
L 94.552813 90.632038 
L 100.470994 49.345413 
L 106.389176 84.723539 
L 112.307358 96.264345 
L 118.22554 78.105769 
L 124.143722 45.532875 
L 130.061903 45.532875 
L 135.980085 91.798699 
L 141.898267 75.141708 
L 147.816449 64.891345 
L 153.734631 111.781076 
L 159.652813 134.721369 
L 165.570994 179.121037 
L 171.489176 142.050515 
L 177.407358 112.279016 
L 183.32554 107.703696 
L 189.243722 86.950825 
L 195.161903 140.124286 
L 201.080085 144.25971 
L 206.998267 168.93903 
L 212.916449 141.391619 
L 218.834631 141.355646 
L 224.752812 176.18086 
L 230.670994 159.743412 
L 236.589176 138.56337 
L 242.507358 154.218118 
L 248.42554 167.463962 
L 254.343722 197.410772 
L 260.261903 197.177566 
L 266.180085 141.850231 
L 272.098267 121.556582 
L 278.016449 117.534338 
L 283.934631 178.052052 
L 289.852813 121.868387 
L 295.770994 101.151829 
L 301.689176 92.770144 
L 307.607358 88.839274 
L 313.52554 87.505068 
L 319.443722 87.611289 
L 325.361903 86.224782 
L 331.280085 102.515185 
L 337.198267 77.636903 
L 343.116449 121.160944 
L 349.034631 96.941622 
L 354.952812 63.230296 
L 360.870994 51.767934 
L 366.789176 120.43052 
L 372.707358 144.668296 
L 378.62554 156.000871 
L 384.543722 153.463042 
L 390.461903 183.376976 
L 396.380085 155.098003 
L 402.298267 154.607331 
L 408.216449 145.780484 
L 414.134631 146.020495 
L 420.052812 149.382638 
L 425.970994 149.622046 
L 431.889176 148.430706 
L 437.807358 181.409598 
L 443.72554 180.478243 
L 449.643722 172.25013 
L 455.561903 180.943982 
L 461.480085 133.691622 
L 467.398267 53.083517 
L 473.316449 45.532875 
L 479.234631 45.532875 
L 485.152813 59.987949 
L 491.070994 71.77237 
L 496.989176 84.769565 
L 502.907358 85.019783 
L 508.82554 55.918848 
L 514.743722 66.736924 
L 520.661903 49.357327 
L 526.580085 46.520136 
L 532.498267 45.532875 
L 538.416449 47.210932 
L 544.334631 68.012216 
L 550.252812 77.707886 
L 556.170994 56.730307 
L 562.089176 49.778489 
L 568.007358 60.545937 
L 573.92554 76.041595 
L 579.843722 62.132616 
L 585.761903 71.499247 
L 591.680085 45.532875 
L 597.598267 45.532875 
L 603.516449 61.401372 
L 609.434631 63.448572 
L 615.352812 49.950406 
L 621.270994 45.532875 
L 627.189176 45.532875 
L 633.107358 45.532875 
L 639.02554 65.332686 
L 644.943722 71.984335 
L 650.861903 83.772131 
L 656.780085 73.162971 
L 662.698267 45.532875 
L 668.616449 75.497748 
L 674.534631 75.87685 
L 680.452812 74.823733 
L 686.370994 73.769878 
L 692.289176 72.715286 
L 698.207358 71.659955 
L 704.12554 70.603886 
L 710.043722 69.547077 
L 715.961903 68.489529 
L 721.880085 67.43124 
L 727.798267 66.37221 
L 733.716449 65.31244 
L 739.634631 64.251927 
L 745.552812 63.190672 
L 751.470994 97.137625 
L 757.389176 140.340143 
" clip-path="url(#p9ffead7b7b)" style="fill: none; stroke: #59a14f; stroke-width: 2.4; stroke-linecap: square"/>
   </g>
   <g id="line2d_15">
    <path d="M 82.716449 45.532875 
L 88.634631 45.532875 
L 94.552813 51.817107 
L 100.470994 45.532875 
L 106.389176 64.203012 
L 112.307358 82.418373 
L 118.22554 60.023899 
L 124.143722 45.532875 
L 130.061903 49.221554 
L 135.980085 50.136901 
L 141.898267 45.532875 
L 147.816449 45.532875 
L 153.734631 45.532875 
L 159.652813 45.532875 
L 165.570994 94.206629 
L 171.489176 125.343985 
L 177.407358 149.927283 
L 183.32554 124.640217 
L 189.243722 93.149712 
L 195.161903 94.664816 
L 201.080085 100.416439 
L 206.998267 83.263088 
L 212.916449 55.54053 
L 218.834631 47.270728 
L 224.752812 69.673645 
L 230.670994 45.532875 
L 236.589176 45.532875 
L 242.507358 76.908943 
L 248.42554 89.369419 
L 254.343722 120.971504 
L 260.261903 120.725408 
L 266.180085 89.82178 
L 272.098267 69.986537 
L 278.016449 65.822099 
L 283.934631 128.479213 
L 289.852813 70.309364 
L 295.770994 48.860442 
L 301.689176 55.192787 
L 307.607358 97.142623 
L 313.52554 90.405094 
L 319.443722 88.89365 
L 325.361903 116.380488 
L 331.280085 132.163907 
L 337.198267 105.859798 
L 343.116449 144.279527 
L 349.034631 139.337743 
L 354.952812 115.447961 
L 360.870994 102.886805 
L 366.789176 170.435101 
L 372.707358 193.842683 
L 378.62554 212.840402 
L 384.543722 209.856852 
L 390.461903 238.588503 
L 396.380085 211.427195 
L 402.298267 177.759435 
L 408.216449 161.794299 
L 414.134631 132.497508 
L 420.052812 119.385184 
L 425.970994 94.971275 
L 431.889176 135.9539 
L 437.807358 107.863933 
L 443.72554 70.282951 
L 449.643722 52.452495 
L 455.561903 45.532875 
L 461.480085 68.982203 
L 467.398267 45.532875 
L 473.316449 45.532875 
L 479.234631 52.501856 
L 485.152813 86.344415 
L 491.070994 45.532875 
L 496.989176 45.532875 
L 502.907358 84.509737 
L 508.82554 115.704633 
L 514.743722 108.082469 
L 520.661903 114.813214 
L 526.580085 113.562843 
L 532.498267 70.949559 
L 538.416449 50.797977 
L 544.334631 45.532875 
L 550.252812 49.256425 
L 556.170994 54.171614 
L 562.089176 92.540441 
L 568.007358 55.544187 
L 573.92554 84.442531 
L 579.843722 69.11534 
L 585.761903 71.235577 
L 591.680085 66.112095 
L 597.598267 45.532875 
L 603.516449 45.532875 
L 609.434631 49.880276 
L 615.352812 45.532875 
L 621.270994 82.6639 
L 627.189176 56.587322 
L 633.107358 58.18674 
L 639.02554 78.432166 
L 644.943722 87.718442 
L 650.861903 86.776763 
L 656.780085 107.897012 
L 662.698267 62.019999 
L 668.616449 92.270308 
L 674.534631 106.278452 
L 680.452812 96.983563 
L 686.370994 93.764494 
L 692.289176 105.793886 
L 698.207358 90.545295 
L 704.12554 92.747843 
L 710.043722 90.545295 
L 715.961903 104.099729 
L 721.880085 91.479927 
L 727.798267 54.403221 
L 733.716449 59.675511 
L 739.634631 45.532875 
L 745.552812 80.444281 
L 751.470994 112.998869 
L 757.389176 125.037281 
" clip-path="url(#p9ffead7b7b)" style="fill: none; stroke: #4e79a7; stroke-width: 2.4; stroke-linecap: square"/>
   </g>
   <g id="line2d_16">
    <path d="M 82.716449 45.532875 
L 88.634631 45.532875 
L 94.552813 45.532875 
L 100.470994 45.532875 
L 106.389176 45.532875 
L 112.307358 53.238047 
L 118.22554 45.532875 
L 124.143722 45.532875 
L 130.061903 45.532875 
L 135.980085 55.213122 
L 141.898267 45.532875 
L 147.816449 45.532875 
L 153.734631 65.922324 
L 159.652813 87.281688 
L 165.570994 127.737263 
L 171.489176 99.958788 
L 177.407358 86.473959 
L 183.32554 63.220676 
L 189.243722 45.532875 
L 195.161903 45.589582 
L 201.080085 53.513981 
L 206.998267 45.532875 
L 212.916449 45.532875 
L 218.834631 45.532875 
L 224.752812 53.308779 
L 230.670994 45.532875 
L 236.589176 45.532875 
L 242.507358 72.984434 
L 248.42554 81.18881 
L 254.343722 88.796142 
L 260.261903 94.726134 
L 266.180085 77.703519 
L 272.098267 63.053354 
L 278.016449 63.015422 
L 283.934631 61.460174 
L 289.852813 50.011879 
L 295.770994 55.740938 
L 301.689176 55.849418 
L 307.607358 54.43341 
L 313.52554 53.016086 
L 319.443722 51.597446 
L 325.361903 50.177488 
L 331.280085 48.756211 
L 337.198267 47.333614 
L 343.116449 45.983398 
L 349.034631 45.532875 
L 354.952812 45.532875 
L 360.870994 45.532875 
L 366.789176 45.71587 
L 372.707358 45.532875 
L 378.62554 45.532875 
L 384.543722 45.532875 
L 390.461903 45.532875 
L 396.380085 45.532875 
L 402.298267 46.53928 
L 408.216449 46.795895 
L 414.134631 45.532875 
L 420.052812 45.789658 
L 425.970994 45.532875 
L 431.889176 45.789658 
L 437.807358 81.132534 
L 443.72554 80.134417 
L 449.643722 80.385411 
L 455.561903 91.146405 
L 461.480085 190.2967 
L 467.398267 145.066589 
L 473.316449 159.145128 
L 479.234631 102.396299 
L 485.152813 70.567056 
L 491.070994 78.064766 
L 496.989176 45.532875 
L 502.907358 82.938981 
L 508.82554 83.189506 
L 514.743722 59.920392 
L 520.661903 61.077317 
L 526.580085 62.475002 
L 532.498267 62.728951 
L 538.416449 65.905808 
L 544.334631 66.159183 
L 550.252812 77.380904 
L 556.170994 56.147758 
L 562.089176 79.49719 
L 568.007358 51.452222 
L 573.92554 45.532875 
L 579.843722 45.532875 
L 585.761903 47.614545 
L 591.680085 45.532875 
L 597.598267 45.532875 
L 603.516449 45.532875 
L 609.434631 45.647934 
L 615.352812 45.532875 
L 621.270994 45.860495 
L 627.189176 45.532875 
L 633.107358 45.532875 
L 639.02554 65.332686 
L 644.943722 65.723089 
L 650.861903 79.074425 
L 656.780085 79.455513 
L 662.698267 69.050078 
L 668.616449 69.430804 
L 674.534631 85.164852 
L 680.452812 85.613402 
L 686.370994 84.5671 
L 692.289176 83.520065 
L 698.207358 82.472298 
L 704.12554 81.423797 
L 710.043722 80.374563 
L 715.961903 79.324593 
L 721.880085 78.273889 
L 727.798267 45.532875 
L 733.716449 45.993314 
L 739.634631 45.532875 
L 745.552812 81.979079 
L 751.470994 82.428584 
L 757.389176 96.215705 
" clip-path="url(#p9ffead7b7b)" style="fill: none; stroke: #f28e2b; stroke-width: 2.4; stroke-linecap: square"/>
   </g>
   <g id="line2d_17">
    <path d="M 82.716449 45.532875 
L 88.634631 59.933599 
L 94.552813 66.462946 
L 100.470994 46.421404 
L 106.389176 45.532875 
L 112.307358 64.893425 
L 118.22554 46.758866 
L 124.143722 45.532875 
L 130.061903 45.532875 
L 135.980085 47.985225 
L 141.898267 47.946916 
L 147.816449 45.532875 
L 153.734631 94.556382 
L 159.652813 116.700508 
L 165.570994 136.351027 
L 171.489176 99.592958 
L 177.407358 68.942613 
L 183.32554 45.532875 
L 189.243722 45.532875 
L 195.161903 45.868651 
L 201.080085 63.019551 
L 206.998267 45.532875 
L 212.916449 45.532875 
L 218.834631 57.043335 
L 224.752812 57.005253 
L 230.670994 45.532875 
L 236.589176 45.532875 
L 242.507358 75.681104 
L 248.42554 88.151758 
L 254.343722 119.779652 
L 260.261903 119.743138 
L 266.180085 62.778946 
L 272.098267 62.741007 
L 278.016449 69.03343 
L 283.934631 133.068985 
L 289.852813 75.083029 
L 295.770994 53.701914 
L 301.689176 45.532875 
L 307.607358 45.532875 
L 313.52554 45.642082 
L 319.443722 45.532875 
L 325.361903 45.532875 
L 331.280085 50.682833 
L 337.198267 45.532875 
L 343.116449 80.293158 
L 349.034631 76.331212 
L 354.952812 103.419574 
L 360.870994 92.003483 
L 366.789176 160.347026 
L 372.707358 160.516332 
L 378.62554 181.390505 
L 384.543722 170.677593 
L 390.461903 199.830283 
L 396.380085 159.463394 
L 402.298267 159.701116 
L 408.216449 152.326434 
L 414.134631 152.56535 
L 420.052812 155.912152 
L 425.970994 148.562382 
L 431.889176 148.801928 
L 437.807358 181.77227 
L 443.72554 215.007026 
L 449.643722 208.05305 
L 455.561903 228.297302 
L 461.480085 350.882058 
L 467.398267 281.146563 
L 473.316449 299.468536 
L 479.234631 240.511901 
L 485.152813 240.736063 
L 491.070994 247.795584 
L 496.989176 303.847024 
L 502.907358 331.008417 
L 508.82554 305.445458 
L 514.743722 314.492754 
L 520.661903 320.279844 
L 526.580085 322.312652 
L 532.498267 359.713396 
L 538.416449 362.268564 
L 544.334631 366.836975 
L 550.252812 375.830334 
L 556.170994 358.763287 
L 562.089176 388.252875 
L 568.007358 358.609978 
L 573.92554 346.607041 
L 579.843722 335.199768 
L 585.761903 335.54971 
L 591.680085 318.030463 
L 597.598267 302.50354 
L 603.516449 287.978679 
L 609.434631 291.639338 
L 615.352812 252.417082 
L 621.270994 285.870916 
L 627.189176 263.332471 
L 633.107358 237.840563 
L 639.02554 256.501979 
L 644.943722 257.142524 
L 650.861903 229.659207 
L 656.780085 235.730699 
L 662.698267 236.07202 
L 668.616449 263.123426 
L 674.534631 275.523211 
L 680.452812 267.295525 
L 686.370994 264.446056 
L 692.289176 324.050602 
L 698.207358 312.315344 
L 704.12554 314.19002 
L 710.043722 312.315344 
L 715.961903 323.852059 
L 721.880085 313.110846 
L 727.798267 281.553394 
L 733.716449 286.040848 
L 739.634631 265.629951 
L 745.552812 295.5349 
L 751.470994 323.421009 
L 757.389176 333.733057 
" clip-path="url(#p9ffead7b7b)" style="fill: none; stroke: #e15759; stroke-width: 2.4; stroke-linecap: square"/>
   </g>
   <g id="line2d_18">
    <path d="M 48.982812 45.532875 
L 791.122813 45.532875 
" clip-path="url(#p9ffead7b7b)" style="fill: none; stroke: #343a40; stroke-linecap: square"/>
   </g>
   <g id="patch_3">
    <path d="M 48.982812 405.388875 
L 48.982812 28.396875 
" style="fill: none; stroke: #000000; stroke-width: 0.8; stroke-linejoin: miter; stroke-linecap: square"/>
   </g>
   <g id="patch_4">
    <path d="M 48.982812 405.388875 
L 791.122812 405.388875 
" style="fill: none; stroke: #000000; stroke-width: 0.8; stroke-linejoin: miter; stroke-linecap: square"/>
   </g>
   <g id="text_10">
    <!-- Locked-Test Drawdown -->
    <g transform="translate(48.982812 22.396875) scale(0.2 -0.2)">
     <defs>
      <path id="DejaVuSans-Bold-4c" d="M 588 4666 
L 1791 4666 
L 1791 909 
L 3903 909 
L 3903 0 
L 588 0 
L 588 4666 
z
" transform="scale(0.015625)"/>
      <path id="DejaVuSans-Bold-6f" d="M 2203 2784 
Q 1831 2784 1636 2517 
Q 1441 2250 1441 1747 
Q 1441 1244 1636 976 
Q 1831 709 2203 709 
Q 2569 709 2762 976 
Q 2956 1244 2956 1747 
Q 2956 2250 2762 2517 
Q 2569 2784 2203 2784 
z
M 2203 3584 
Q 3106 3584 3614 3096 
Q 4122 2609 4122 1747 
Q 4122 884 3614 396 
Q 3106 -91 2203 -91 
Q 1297 -91 786 396 
Q 275 884 275 1747 
Q 275 2609 786 3096 
Q 1297 3584 2203 3584 
z
" transform="scale(0.015625)"/>
      <path id="DejaVuSans-Bold-63" d="M 3366 3391 
L 3366 2478 
Q 3138 2634 2908 2709 
Q 2678 2784 2431 2784 
Q 1963 2784 1702 2511 
Q 1441 2238 1441 1747 
Q 1441 1256 1702 982 
Q 1963 709 2431 709 
Q 2694 709 2930 787 
Q 3166 866 3366 1019 
L 3366 103 
Q 3103 6 2833 -42 
Q 2563 -91 2291 -91 
Q 1344 -91 809 395 
Q 275 881 275 1747 
Q 275 2613 809 3098 
Q 1344 3584 2291 3584 
Q 2566 3584 2833 3536 
Q 3100 3488 3366 3391 
z
" transform="scale(0.015625)"/>
      <path id="DejaVuSans-Bold-6b" d="M 538 4863 
L 1656 4863 
L 1656 2216 
L 2944 3500 
L 4244 3500 
L 2534 1894 
L 4378 0 
L 3022 0 
L 1656 1459 
L 1656 0 
L 538 0 
L 538 4863 
z
" transform="scale(0.015625)"/>
      <path id="DejaVuSans-Bold-65" d="M 4031 1759 
L 4031 1441 
L 1416 1441 
Q 1456 1047 1700 850 
Q 1944 653 2381 653 
Q 2734 653 3104 758 
Q 3475 863 3866 1075 
L 3866 213 
Q 3469 63 3072 -14 
Q 2675 -91 2278 -91 
Q 1328 -91 801 392 
Q 275 875 275 1747 
Q 275 2603 792 3093 
Q 1309 3584 2216 3584 
Q 3041 3584 3536 3087 
Q 4031 2591 4031 1759 
z
M 2881 2131 
Q 2881 2450 2695 2645 
Q 2509 2841 2209 2841 
Q 1884 2841 1681 2658 
Q 1478 2475 1428 2131 
L 2881 2131 
z
" transform="scale(0.015625)"/>
      <path id="DejaVuSans-Bold-64" d="M 2919 2988 
L 2919 4863 
L 4044 4863 
L 4044 0 
L 2919 0 
L 2919 506 
Q 2688 197 2409 53 
Q 2131 -91 1766 -91 
Q 1119 -91 703 423 
Q 288 938 288 1747 
Q 288 2556 703 3070 
Q 1119 3584 1766 3584 
Q 2128 3584 2408 3439 
Q 2688 3294 2919 2988 
z
M 2181 722 
Q 2541 722 2730 984 
Q 2919 1247 2919 1747 
Q 2919 2247 2730 2509 
Q 2541 2772 2181 2772 
Q 1825 2772 1636 2509 
Q 1447 2247 1447 1747 
Q 1447 1247 1636 984 
Q 1825 722 2181 722 
z
" transform="scale(0.015625)"/>
      <path id="DejaVuSans-Bold-2d" d="M 347 2297 
L 2309 2297 
L 2309 1388 
L 347 1388 
L 347 2297 
z
" transform="scale(0.015625)"/>
      <path id="DejaVuSans-Bold-54" d="M 31 4666 
L 4331 4666 
L 4331 3756 
L 2784 3756 
L 2784 0 
L 1581 0 
L 1581 3756 
L 31 3756 
L 31 4666 
z
" transform="scale(0.015625)"/>
      <path id="DejaVuSans-Bold-73" d="M 3272 3391 
L 3272 2541 
Q 2913 2691 2578 2766 
Q 2244 2841 1947 2841 
Q 1628 2841 1473 2761 
Q 1319 2681 1319 2516 
Q 1319 2381 1436 2309 
Q 1553 2238 1856 2203 
L 2053 2175 
Q 2913 2066 3209 1816 
Q 3506 1566 3506 1031 
Q 3506 472 3093 190 
Q 2681 -91 1863 -91 
Q 1516 -91 1145 -36 
Q 775 19 384 128 
L 384 978 
Q 719 816 1070 734 
Q 1422 653 1784 653 
Q 2113 653 2278 743 
Q 2444 834 2444 1013 
Q 2444 1163 2330 1236 
Q 2216 1309 1875 1350 
L 1678 1375 
Q 931 1469 631 1722 
Q 331 1975 331 2491 
Q 331 3047 712 3315 
Q 1094 3584 1881 3584 
Q 2191 3584 2531 3537 
Q 2872 3491 3272 3391 
z
" transform="scale(0.015625)"/>
      <path id="DejaVuSans-Bold-74" d="M 1759 4494 
L 1759 3500 
L 2913 3500 
L 2913 2700 
L 1759 2700 
L 1759 1216 
Q 1759 972 1856 886 
Q 1953 800 2241 800 
L 2816 800 
L 2816 0 
L 1856 0 
Q 1194 0 917 276 
Q 641 553 641 1216 
L 641 2700 
L 84 2700 
L 84 3500 
L 641 3500 
L 641 4494 
L 1759 4494 
z
" transform="scale(0.015625)"/>
      <path id="DejaVuSans-Bold-20" transform="scale(0.015625)"/>
      <path id="DejaVuSans-Bold-44" d="M 1791 3756 
L 1791 909 
L 2222 909 
Q 2959 909 3348 1275 
Q 3738 1641 3738 2338 
Q 3738 3031 3350 3393 
Q 2963 3756 2222 3756 
L 1791 3756 
z
M 588 4666 
L 1856 4666 
Q 2919 4666 3439 4514 
Q 3959 4363 4331 4000 
Q 4659 3684 4818 3271 
Q 4978 2859 4978 2338 
Q 4978 1809 4818 1395 
Q 4659 981 4331 666 
Q 3956 303 3431 151 
Q 2906 0 1856 0 
L 588 0 
L 588 4666 
z
" transform="scale(0.015625)"/>
      <path id="DejaVuSans-Bold-72" d="M 3138 2547 
Q 2991 2616 2845 2648 
Q 2700 2681 2553 2681 
Q 2122 2681 1889 2404 
Q 1656 2128 1656 1613 
L 1656 0 
L 538 0 
L 538 3500 
L 1656 3500 
L 1656 2925 
Q 1872 3269 2151 3426 
Q 2431 3584 2822 3584 
Q 2878 3584 2943 3579 
Q 3009 3575 3134 3559 
L 3138 2547 
z
" transform="scale(0.015625)"/>
      <path id="DejaVuSans-Bold-61" d="M 2106 1575 
Q 1756 1575 1579 1456 
Q 1403 1338 1403 1106 
Q 1403 894 1545 773 
Q 1688 653 1941 653 
Q 2256 653 2472 879 
Q 2688 1106 2688 1447 
L 2688 1575 
L 2106 1575 
z
M 3816 1997 
L 3816 0 
L 2688 0 
L 2688 519 
Q 2463 200 2181 54 
Q 1900 -91 1497 -91 
Q 953 -91 614 226 
Q 275 544 275 1050 
Q 275 1666 698 1953 
Q 1122 2241 2028 2241 
L 2688 2241 
L 2688 2328 
Q 2688 2594 2478 2717 
Q 2269 2841 1825 2841 
Q 1466 2841 1156 2769 
Q 847 2697 581 2553 
L 581 3406 
Q 941 3494 1303 3539 
Q 1666 3584 2028 3584 
Q 2975 3584 3395 3211 
Q 3816 2838 3816 1997 
z
" transform="scale(0.015625)"/>
      <path id="DejaVuSans-Bold-77" d="M 225 3500 
L 1313 3500 
L 1900 1088 
L 2491 3500 
L 3425 3500 
L 4013 1113 
L 4603 3500 
L 5691 3500 
L 4769 0 
L 3547 0 
L 2956 2406 
L 2369 0 
L 1147 0 
L 225 3500 
z
" transform="scale(0.015625)"/>
      <path id="DejaVuSans-Bold-6e" d="M 4056 2131 
L 4056 0 
L 2931 0 
L 2931 347 
L 2931 1631 
Q 2931 2084 2911 2256 
Q 2891 2428 2841 2509 
Q 2775 2619 2662 2680 
Q 2550 2741 2406 2741 
Q 2056 2741 1856 2470 
Q 1656 2200 1656 1722 
L 1656 0 
L 538 0 
L 538 3500 
L 1656 3500 
L 1656 2988 
Q 1909 3294 2193 3439 
Q 2478 3584 2822 3584 
Q 3428 3584 3742 3212 
Q 4056 2841 4056 2131 
z
" transform="scale(0.015625)"/>
     </defs>
     <use xlink:href="#DejaVuSans-Bold-4c"/>
     <use xlink:href="#DejaVuSans-Bold-6f" transform="translate(63.720703 0)"/>
     <use xlink:href="#DejaVuSans-Bold-63" transform="translate(132.421875 0)"/>
     <use xlink:href="#DejaVuSans-Bold-6b" transform="translate(191.699219 0)"/>
     <use xlink:href="#DejaVuSans-Bold-65" transform="translate(255.578125 0)"/>
     <use xlink:href="#DejaVuSans-Bold-64" transform="translate(323.400391 0)"/>
     <use xlink:href="#DejaVuSans-Bold-2d" transform="translate(394.982422 0)"/>
     <use xlink:href="#DejaVuSans-Bold-54" transform="translate(421.736328 0)"/>
     <use xlink:href="#DejaVuSans-Bold-65" transform="translate(476.699219 0)"/>
     <use xlink:href="#DejaVuSans-Bold-73" transform="translate(544.521484 0)"/>
     <use xlink:href="#DejaVuSans-Bold-74" transform="translate(604.042969 0)"/>
     <use xlink:href="#DejaVuSans-Bold-20" transform="translate(651.845703 0)"/>
     <use xlink:href="#DejaVuSans-Bold-44" transform="translate(686.660156 0)"/>
     <use xlink:href="#DejaVuSans-Bold-72" transform="translate(769.667969 0)"/>
     <use xlink:href="#DejaVuSans-Bold-61" transform="translate(818.984375 0)"/>
     <use xlink:href="#DejaVuSans-Bold-77" transform="translate(886.464844 0)"/>
     <use xlink:href="#DejaVuSans-Bold-64" transform="translate(978.847656 0)"/>
     <use xlink:href="#DejaVuSans-Bold-6f" transform="translate(1050.429688 0)"/>
     <use xlink:href="#DejaVuSans-Bold-77" transform="translate(1119.130859 0)"/>
     <use xlink:href="#DejaVuSans-Bold-6e" transform="translate(1211.513672 0)"/>
    </g>
   </g>
   <g id="legend_1">
    <g id="line2d_19">
     <path d="M 57.982812 376.131062 
L 67.982812 376.131062 
L 77.982812 376.131062 
" style="fill: none; stroke: #59a14f; stroke-width: 2.4; stroke-linecap: square"/>
    </g>
    <g id="text_11">
     <!-- AttentionDQN -->
     <g transform="translate(85.982812 379.631062) scale(0.1 -0.1)">
      <defs>
       <path id="DejaVuSans-41" d="M 2188 4044 
L 1331 1722 
L 3047 1722 
L 2188 4044 
z
M 1831 4666 
L 2547 4666 
L 4325 0 
L 3669 0 
L 3244 1197 
L 1141 1197 
L 716 0 
L 50 0 
L 1831 4666 
z
" transform="scale(0.015625)"/>
       <path id="DejaVuSans-74" d="M 1172 4494 
L 1172 3500 
L 2356 3500 
L 2356 3053 
L 1172 3053 
L 1172 1153 
Q 1172 725 1289 603 
Q 1406 481 1766 481 
L 2356 481 
L 2356 0 
L 1766 0 
Q 1100 0 847 248 
Q 594 497 594 1153 
L 594 3053 
L 172 3053 
L 172 3500 
L 594 3500 
L 594 4494 
L 1172 4494 
z
" transform="scale(0.015625)"/>
       <path id="DejaVuSans-65" d="M 3597 1894 
L 3597 1613 
L 953 1613 
Q 991 1019 1311 708 
Q 1631 397 2203 397 
Q 2534 397 2845 478 
Q 3156 559 3463 722 
L 3463 178 
Q 3153 47 2828 -22 
Q 2503 -91 2169 -91 
Q 1331 -91 842 396 
Q 353 884 353 1716 
Q 353 2575 817 3079 
Q 1281 3584 2069 3584 
Q 2775 3584 3186 3129 
Q 3597 2675 3597 1894 
z
M 3022 2063 
Q 3016 2534 2758 2815 
Q 2500 3097 2075 3097 
Q 1594 3097 1305 2825 
Q 1016 2553 972 2059 
L 3022 2063 
z
" transform="scale(0.015625)"/>
       <path id="DejaVuSans-69" d="M 603 3500 
L 1178 3500 
L 1178 0 
L 603 0 
L 603 3500 
z
M 603 4863 
L 1178 4863 
L 1178 4134 
L 603 4134 
L 603 4863 
z
" transform="scale(0.015625)"/>
       <path id="DejaVuSans-51" d="M 2522 4238 
Q 1834 4238 1429 3725 
Q 1025 3213 1025 2328 
Q 1025 1447 1429 934 
Q 1834 422 2522 422 
Q 3209 422 3611 934 
Q 4013 1447 4013 2328 
Q 4013 3213 3611 3725 
Q 3209 4238 2522 4238 
z
M 3406 84 
L 4238 -825 
L 3475 -825 
L 2784 -78 
Q 2681 -84 2626 -87 
Q 2572 -91 2522 -91 
Q 1538 -91 948 567 
Q 359 1225 359 2328 
Q 359 3434 948 4092 
Q 1538 4750 2522 4750 
Q 3503 4750 4090 4092 
Q 4678 3434 4678 2328 
Q 4678 1516 4351 937 
Q 4025 359 3406 84 
z
" transform="scale(0.015625)"/>
       <path id="DejaVuSans-4e" d="M 628 4666 
L 1478 4666 
L 3547 763 
L 3547 4666 
L 4159 4666 
L 4159 0 
L 3309 0 
L 1241 3903 
L 1241 0 
L 628 0 
L 628 4666 
z
" transform="scale(0.015625)"/>
      </defs>
      <use xlink:href="#DejaVuSans-41"/>
      <use xlink:href="#DejaVuSans-74" transform="translate(66.658203 0)"/>
      <use xlink:href="#DejaVuSans-74" transform="translate(105.867188 0)"/>
      <use xlink:href="#DejaVuSans-65" transform="translate(145.076172 0)"/>
      <use xlink:href="#DejaVuSans-6e" transform="translate(206.599609 0)"/>
      <use xlink:href="#DejaVuSans-74" transform="translate(269.978516 0)"/>
      <use xlink:href="#DejaVuSans-69" transform="translate(309.1875 0)"/>
      <use xlink:href="#DejaVuSans-6f" transform="translate(336.970703 0)"/>
      <use xlink:href="#DejaVuSans-6e" transform="translate(398.152344 0)"/>
      <use xlink:href="#DejaVuSans-44" transform="translate(461.53125 0)"/>
      <use xlink:href="#DejaVuSans-51" transform="translate(538.533203 0)"/>
      <use xlink:href="#DejaVuSans-4e" transform="translate(617.244141 0)"/>
     </g>
    </g>
    <g id="line2d_20">
     <path d="M 57.982812 390.809187 
L 67.982812 390.809187 
L 77.982812 390.809187 
" style="fill: none; stroke: #4e79a7; stroke-width: 2.4; stroke-linecap: square"/>
    </g>
    <g id="text_12">
     <!-- PPO -->
     <g transform="translate(85.982812 394.309187) scale(0.1 -0.1)">
      <defs>
       <path id="DejaVuSans-50" d="M 1259 4147 
L 1259 2394 
L 2053 2394 
Q 2494 2394 2734 2622 
Q 2975 2850 2975 3272 
Q 2975 3691 2734 3919 
Q 2494 4147 2053 4147 
L 1259 4147 
z
M 628 4666 
L 2053 4666 
Q 2838 4666 3239 4311 
Q 3641 3956 3641 3272 
Q 3641 2581 3239 2228 
Q 2838 1875 2053 1875 
L 1259 1875 
L 1259 0 
L 628 0 
L 628 4666 
z
" transform="scale(0.015625)"/>
       <path id="DejaVuSans-4f" d="M 2522 4238 
Q 1834 4238 1429 3725 
Q 1025 3213 1025 2328 
Q 1025 1447 1429 934 
Q 1834 422 2522 422 
Q 3209 422 3611 934 
Q 4013 1447 4013 2328 
Q 4013 3213 3611 3725 
Q 3209 4238 2522 4238 
z
M 2522 4750 
Q 3503 4750 4090 4092 
Q 4678 3434 4678 2328 
Q 4678 1225 4090 567 
Q 3503 -91 2522 -91 
Q 1538 -91 948 565 
Q 359 1222 359 2328 
Q 359 3434 948 4092 
Q 1538 4750 2522 4750 
z
" transform="scale(0.015625)"/>
      </defs>
      <use xlink:href="#DejaVuSans-50"/>
      <use xlink:href="#DejaVuSans-50" transform="translate(60.302734 0)"/>
      <use xlink:href="#DejaVuSans-4f" transform="translate(120.605469 0)"/>
     </g>
    </g>
    <g id="line2d_21">
     <path d="M 175.1875 376.131062 
L 185.1875 376.131062 
L 195.1875 376.131062 
" style="fill: none; stroke: #f28e2b; stroke-width: 2.4; stroke-linecap: square"/>
    </g>
    <g id="text_13">
     <!-- A2C -->
     <g transform="translate(203.1875 379.631062) scale(0.1 -0.1)">
      <defs>
       <path id="DejaVuSans-43" d="M 4122 4306 
L 4122 3641 
Q 3803 3938 3442 4084 
Q 3081 4231 2675 4231 
Q 1875 4231 1450 3742 
Q 1025 3253 1025 2328 
Q 1025 1406 1450 917 
Q 1875 428 2675 428 
Q 3081 428 3442 575 
Q 3803 722 4122 1019 
L 4122 359 
Q 3791 134 3420 21 
Q 3050 -91 2638 -91 
Q 1578 -91 968 557 
Q 359 1206 359 2328 
Q 359 3453 968 4101 
Q 1578 4750 2638 4750 
Q 3056 4750 3426 4639 
Q 3797 4528 4122 4306 
z
" transform="scale(0.015625)"/>
      </defs>
      <use xlink:href="#DejaVuSans-41"/>
      <use xlink:href="#DejaVuSans-32" transform="translate(68.408203 0)"/>
      <use xlink:href="#DejaVuSans-43" transform="translate(132.03125 0)"/>
     </g>
    </g>
    <g id="line2d_22">
     <path d="M 175.1875 390.809187 
L 185.1875 390.809187 
L 195.1875 390.809187 
" style="fill: none; stroke: #e15759; stroke-width: 2.4; stroke-linecap: square"/>
    </g>
    <g id="text_14">
     <!-- DQN -->
     <g transform="translate(203.1875 394.309187) scale(0.1 -0.1)">
      <use xlink:href="#DejaVuSans-44"/>
      <use xlink:href="#DejaVuSans-51" transform="translate(77.001953 0)"/>
      <use xlink:href="#DejaVuSans-4e" transform="translate(155.712891 0)"/>
     </g>
    </g>
   </g>
  </g>
 </g>
 <defs>
  <clipPath id="p9ffead7b7b">
   <rect x="48.982812" y="28.396875" width="742.14" height="376.992"/>
  </clipPath>
 </defs>
</svg>
